General

Format                         : MPEG-4
Format profile                 : Base Media
Codec ID                       : isom
File size                      : 54.7 MiB
Duration                       : 2mn 42s
Overall bit rate mode          : Variable
Overall bit rate               : 2 816 Kbps
Encoded date                   : UTC 2012-08-13 03:29:33
Tagged date                    : UTC 2012-08-13 03:29:33

Video
ID                             : 1
Format                         : AVC
Format/Info                    : Advanced Video Codec
Format profile                 : High@L3.0
Format settings, CABAC         : Yes
Format settings, ReFrames      : 2 frames
Codec ID                       : avc1
Codec ID/Info                  : Advanced Video Coding
Duration                       : 2mn 42s
Bit rate                       : 2 700 Kbps
Maximum bit rate               : 4 693 Kbps
Width                          : 720 pixels
Height                         : 480 pixels
Display aspect ratio           : 4:3
Original display aspect ratio  : 4:3
Frame rate mode                : Constant
Frame rate                     : 29.970 fps
Standard                       : NTSC
Color space                    : YUV
Chroma subsampling             : 4:2:0
Bit depth                      : 8 bits
Scan type                      : Progressive
Bits/(Pixel*Frame)             : 0.261
Stream size                    : 50.8 MiB (93%)


Audio
ID                             : 2
Format                         : AAC
Format/Info                    : Advanced Audio Codec
Format profile                 : LC
Codec ID                       : 40
Duration                       : 2mn 42s
Bit rate mode                  : Variable
Bit rate                       : 192 Kbps
Maximum bit rate               : 227 Kbps
Channel(s)                     : 2 channels
Channel positions              : Front: L R
Sampling rate                  : 48.0 KHz
Compression mode               : Lossy
Delay relative to video        : -667ms
Stream size                    : 3.74 MiB (7%)